<svg xmlns="http://www.w3.org/2000/svg" xml:space="preserve" viewBox="86 127 328 246"><path fill="#E5E7EB" stroke="#000" stroke-miterlimit="10" stroke-width="4" d="M365.7 371H134.3c-25.57 0-46.3-20.73-46.3-46.3V216.3c0-25.57 20.73-46.3 46.3-46.3h231.4c25.57 0 46.3 20.73 46.3 46.3v108.4c0 25.57-20.73 46.3-46.3 46.3z"/><path fill="#E5E7EB" stroke="#000" stroke-miterlimit="10" stroke-width="4" d="M352.16 194H148.48l29.65-56.24c2.55-4.84 8.54-8.76 13.37-8.76h116.99c4.84 0 10.86 3.92 13.46 8.76L352.16 194z"/><path fill="#9CA3AF" stroke="#000" stroke-miterlimit="10" stroke-width="4" d="M295.25 156h-90.5c-3.04 0-5.5-2.46-5.5-5.5s2.46-5.5 5.5-5.5h90.5c3.04 0 5.5 2.46 5.5 5.5s-2.46 5.5-5.5 5.5z"/><path fill="#0EA5E9" stroke="#000" stroke-miterlimit="10" stroke-width="4" d="M412 216.3c0-25.57-20.73-46.3-46.3-46.3H134.3c-25.57 0-46.3 20.73-46.3 46.3v21.63h324V216.3z"/><circle cx="373.5" cy="206.5" r="14.5" fill="#E0F2FE" stroke="#000" stroke-miterlimit="10" stroke-width="4"/><circle cx="250" cy="270.5" r="78.75" fill="#7DD3FC" stroke="#000" stroke-miterlimit="10" stroke-width="4"/><circle cx="250" cy="270.5" r="59.29" fill="#FFF" stroke="#000" stroke-miterlimit="10" stroke-width="4"/><circle cx="227.5" cy="270.5" r="20.5" fill="#E0F2FE"/></svg>
